<svg width="187" height="27" fill="none" xmlns="http://www.w3.org/2000/svg">
  <path d="M.338 21.188c6.858.375 11.5.562 13.928.562.576 0 1.027-.163 1.352-.488.35-.35.525-.812.525-1.387V16.5H7.51c-2.628 0-4.543-.588-5.744-1.762C.588 13.538 0 11.625 0 9V7.875c0-2.625.588-4.525 1.765-5.7 1.2-1.2 3.116-1.8 5.744-1.8h13.177v5.25H9.01c-1.501 0-2.252.75-2.252 2.25v.75c0 1.5.75 2.25 2.252 2.25h6.758c2.453 0 4.255.575 5.406 1.725 1.152 1.15 1.727 2.95 1.727 5.4v1.875c0 2.45-.575 4.25-1.727 5.4C20.023 26.425 18.221 27 15.768 27c-1.276 0-2.628-.025-4.055-.075l-3.454-.15c-2.552-.125-5.193-.3-7.921-.525v-5.063zM44.804 7.5c0-1.5-.751-2.25-2.253-2.25H36.17c-1.502 0-2.253.75-2.253 2.25v12c0 1.5.751 2.25 2.253 2.25h6.382c1.502 0 2.253-.75 2.253-2.25v-12zm6.758 12c0 2.625-.601 4.538-1.802 5.738C48.583 26.413 46.68 27 44.053 27h-9.386c-2.628 0-4.542-.587-5.744-1.762-1.176-1.2-1.764-3.113-1.764-5.738v-12c0-2.625.588-4.525 1.764-5.7C30.125.6 32.04 0 34.667 0h9.386c2.628 0 4.53.6 5.707 1.8 1.201 1.175 1.802 3.075 1.802 5.7v12zm15.746-.75L73.69.375h7.321l-9.949 26.25h-7.508L53.603.375h7.322l6.382 18.375zM109.982.375h15.768c2.628 0 4.531.6 5.707 1.8 1.201 1.175 1.802 3.075 1.802 5.7v3.375c0 2.075-.35 3.688-1.051 4.837-.676 1.15-1.765 1.913-3.266 2.288l4.692 8.25h-7.32l-4.318-7.875h-5.256v7.875h-6.758V.375zm16.519 7.5c0-1.5-.751-2.25-2.252-2.25h-7.509V13.5h7.509c1.501 0 2.252-.75 2.252-2.25V7.875zM187 26.625h-7.133l-9.011-15.75v15.75h-6.757V.375h7.133l9.01 15.75V.375H187v26.25zM105.355 6.082H84.519V.375h20.836v5.707zm53.917 0h-20.836V.375h20.836v5.707zm-53.917 10.271H84.519v-5.706h20.836v5.706zm53.917 0h-20.836v-5.706h20.836v5.706zm-53.917 10.272H84.519v-5.706h20.836v5.706zm53.917 0h-20.836v-5.706h20.836v5.706z" fill="#fff"/>
</svg>
