<svg width="102" height="15" fill="none" xmlns="http://www.w3.org/2000/svg">
  <path d="M.184 11.57c3.741.205 6.273.307 7.598.307.314 0 .56-.088.737-.266.191-.191.287-.444.287-.758V9.01h-4.71c-1.434 0-2.478-.32-3.134-.962C.321 7.393 0 6.348 0 4.915V4.3c0-1.433.32-2.47.962-3.112.656-.656 1.7-.983 3.134-.983h7.187v2.867H4.915c-.82 0-1.229.41-1.229 1.228v.41c0 .82.41 1.229 1.229 1.229H8.6c1.338 0 2.32.314 2.949.942.628.628.942 1.61.942 2.948v1.024c0 1.338-.314 2.321-.942 2.95-.628.627-1.611.941-2.95.941-.695 0-1.433-.014-2.21-.04l-1.885-.083a129.51 129.51 0 01-4.32-.286V11.57zm24.255-7.474c0-.82-.41-1.23-1.23-1.23h-3.48c-.82 0-1.23.41-1.23 1.23v6.553c0 .819.41 1.228 1.23 1.228h3.48c.82 0 1.23-.41 1.23-1.228V4.096zm3.686 6.553c0 1.433-.328 2.477-.983 3.133-.642.641-1.68.962-3.113.962h-5.12c-1.433 0-2.477-.32-3.133-.962-.641-.656-.962-1.7-.962-3.133V4.096c0-1.434.32-2.471.962-3.113C16.432.328 17.476 0 18.91 0h5.12c1.433 0 2.47.328 3.113.983.655.642.983 1.68.983 3.113v6.553zm8.588-.41L40.195.205h3.993L38.76 14.539h-4.096L29.24.205h3.993l3.481 10.034zM59.99.205h8.601c1.434 0 2.471.327 3.113.983.655.641.983 1.679.983 3.112v1.843c0 1.134-.191 2.014-.574 2.642-.368.628-.962 1.044-1.781 1.25l2.56 4.504h-3.994l-2.355-4.3h-2.867v4.3H59.99V.205zM69 4.3c0-.819-.409-1.228-1.228-1.228h-4.096v4.3h4.096c.82 0 1.229-.41 1.229-1.229V4.3zm33 10.24h-3.89l-4.915-8.601v8.6h-3.687V.205H93.4l4.915 8.6v-8.6H102v14.334zM57.467 3.321H46.1V.205h11.366V3.32zm29.409 0H75.51V.205h11.365V3.32zM57.467 8.93H46.1V5.814h11.366V8.93zm29.409 0H75.51V5.814h11.365V8.93zm-29.409 5.61H46.1v-3.117h11.366v3.116zm29.409 0H75.51v-3.117h11.365v3.116z" fill="#232C40"/>
</svg>
