<svg width="190" height="32" viewBox="0 0 190 32" fill="none" xmlns="http://www.w3.org/2000/svg">
<path d="M10.9372 30.9779L14.0826 25.5318H21.3293C21.5731 25.5318 21.7981 25.4009 21.919 25.1888L24.9369 19.8946C25.0508 19.6948 25.0563 19.4509 24.9516 19.2461L21.9129 13.3062C21.7966 13.079 21.5633 12.9361 21.3085 12.9361H14.9209C14.3977 12.9361 14.071 12.368 14.3331 11.9141L17.4784 6.46802H24.6763C25.1608 6.46802 25.6086 6.72668 25.8516 7.14686L31.3779 16.7044C31.4979 16.9119 31.561 17.1475 31.561 17.3873V21.7585C31.561 22.0002 31.4969 22.2375 31.3751 22.4461L26.1921 31.3259C25.9484 31.7433 25.5021 31.9999 25.0196 31.9999H11.525C11.0018 31.9999 10.675 31.4318 10.9372 30.9779Z" fill="#ECEEF3"/>
<path d="M17.4784 6.46808L20.6238 1.02198C20.886 0.568083 20.5593 0 20.036 0H6.54139C6.0589 0 5.61261 0.256565 5.36895 0.674025L0.185949 9.55377C0.0641788 9.76239 0 9.99974 0 10.2414V14.6126C0 14.8524 0.0631785 15.088 0.183147 15.2955L5.70945 24.8531C5.9524 25.2733 6.40021 25.5319 6.88469 25.5319H14.0826L17.2279 20.0858C17.49 19.6319 17.1633 19.0638 16.6401 19.0638H10.2525C9.99777 19.0638 9.76443 18.9209 9.64818 18.6937L6.60947 12.7538C6.50472 12.549 6.51024 12.3051 6.62413 12.1053L9.64199 6.81114C9.76291 6.59901 9.98796 6.46809 10.2317 6.46809L17.4784 6.46808Z" fill="#ECEEF3"/>
<path d="M43.7595 24.3311C45.1308 25.5391 46.9504 26.143 49.2182 26.143H52.7387C54.9803 26.143 56.7735 25.6704 58.1184 24.725C59.4633 23.7533 60.1357 22.4535 60.1357 20.8253V19.3679C60.1357 18.2649 59.7006 17.3064 58.8304 16.4923C57.9601 15.6783 56.7998 15.1268 55.3494 14.8379L48.2689 13.5774C47.7679 13.4987 47.3591 13.328 47.0427 13.0654C46.7526 12.8028 46.6075 12.4876 46.6075 12.12V11.3322C46.6075 10.807 46.8581 10.3999 47.3591 10.1111C47.8601 9.82225 48.5722 9.67782 49.4951 9.67782H52.6201C53.3848 9.67782 53.9914 9.8879 54.4397 10.308C54.9143 10.7282 55.1517 11.2928 55.1517 12.0018H59.6215C59.6215 10.1636 58.9754 8.67992 57.6833 7.55073C56.3911 6.42153 54.7034 5.85693 52.6201 5.85693H49.4556C47.1613 5.85693 45.3549 6.32962 44.0364 7.27499C42.7442 8.22036 42.0981 9.50712 42.0981 11.1352V12.4351C42.0981 13.5643 42.5464 14.5622 43.443 15.4288C44.3396 16.2691 45.5527 16.8206 47.0822 17.0832L53.9254 18.2649C54.4528 18.37 54.8616 18.5538 55.1517 18.8164C55.4681 19.079 55.6263 19.3941 55.6263 19.7618V20.6284C55.6263 21.1536 55.3626 21.5737 54.8352 21.8889C54.3342 22.1777 53.6353 22.3222 52.7387 22.3222H49.2182C48.2953 22.3222 47.5569 22.0727 47.0031 21.5737C46.4493 21.0485 46.1724 20.3658 46.1724 19.5254H41.7026C41.7026 21.5212 42.3882 23.1231 43.7595 24.3311Z" fill="#ECEEF3"/>
<path fill-rule="evenodd" clip-rule="evenodd" d="M65.2831 24.0553C66.7598 25.4471 68.7113 26.143 71.1374 26.143H74.5788C77.0576 26.143 79.0354 25.4471 80.5122 24.0553C82.0153 22.6373 82.7669 20.7728 82.7669 18.4619V13.5774C82.7669 12.0543 82.4241 10.7151 81.7384 9.55965C81.0792 8.37793 80.1298 7.47194 78.8904 6.84169C77.6773 6.18518 76.2665 5.85693 74.6579 5.85693H71.1769C69.5683 5.85693 68.1443 6.18518 66.9049 6.84169C65.6918 7.47194 64.7425 8.37793 64.0568 9.55965C63.3976 10.7151 63.0679 12.0543 63.0679 13.5774V18.4619C63.0679 20.7728 63.8063 22.6373 65.2831 24.0553ZM77.1895 21.1404C76.5302 21.8757 75.6468 22.2434 74.5392 22.2434H71.1769C70.1221 22.2434 69.2651 21.8757 68.6058 21.1404C67.9465 20.3789 67.6169 19.3941 67.6169 18.1861V13.8138C67.6169 12.6058 67.9465 11.6342 68.6058 10.8989C69.2651 10.1373 70.1485 9.7566 71.2561 9.7566H74.5788C75.6863 9.7566 76.5698 10.1373 77.229 10.8989C77.8883 11.6342 78.2179 12.6058 78.2179 13.8138V18.1861C78.2179 19.3941 77.8751 20.3789 77.1895 21.1404Z" fill="#ECEEF3"/>
<path fill-rule="evenodd" clip-rule="evenodd" d="M111.991 25.2371C113.23 25.841 114.654 26.143 116.263 26.143H119.269C121.669 26.143 123.607 25.5391 125.084 24.3311C126.561 23.1231 127.299 21.5212 127.299 19.5254H122.829C122.829 20.3658 122.5 21.0485 121.841 21.5737C121.208 22.0727 120.364 22.3222 119.309 22.3222H116.263C115.182 22.3222 114.312 22.007 113.652 21.3768C113.019 20.7465 112.703 19.9062 112.703 18.8558V17.4377H127.378V13.4987C127.378 11.1877 126.653 9.33643 125.203 7.94463C123.752 6.55283 121.827 5.85693 119.428 5.85693H116.263C114.654 5.85693 113.23 6.18518 111.991 6.84169C110.778 7.47194 109.829 8.37793 109.143 9.55965C108.484 10.7151 108.154 12.0543 108.154 13.5774V18.8558C108.154 20.3001 108.484 21.5737 109.143 22.6767C109.829 23.7796 110.778 24.6331 111.991 25.2371ZM122.909 13.4987V14.0501H112.624V13.6956C112.624 12.4876 112.954 11.516 113.613 10.7807C114.298 10.0192 115.182 9.63843 116.263 9.63843H119.467C120.496 9.63843 121.326 9.99294 121.959 10.7019C122.592 11.411 122.909 12.3432 122.909 13.4987Z" fill="#ECEEF3"/>
<path fill-rule="evenodd" clip-rule="evenodd" d="M148.671 25.2371C149.911 25.841 151.335 26.143 152.943 26.143H155.95C158.349 26.143 160.288 25.5391 161.765 24.3311C163.241 23.1231 163.98 21.5212 163.98 19.5254H159.51C159.51 20.3658 159.18 21.0485 158.521 21.5737C157.888 22.0727 157.044 22.3222 155.989 22.3222H152.943C151.862 22.3222 150.992 22.007 150.333 21.3768C149.7 20.7465 149.383 19.9062 149.383 18.8558V17.4377H164.059V13.4987C164.059 11.1877 163.334 9.33643 161.883 7.94463C160.433 6.55283 158.508 5.85693 156.108 5.85693H152.943C151.335 5.85693 149.911 6.18518 148.671 6.84169C147.458 7.47194 146.509 8.37793 145.823 9.55965C145.164 10.7151 144.834 12.0543 144.834 13.5774V18.8558C144.834 20.3001 145.164 21.5737 145.823 22.6767C146.509 23.7796 147.458 24.6331 148.671 25.2371ZM159.589 13.4987V14.0501H149.304V13.6956C149.304 12.4876 149.634 11.516 150.293 10.7807C150.979 10.0192 151.862 9.63843 152.943 9.63843H156.148C157.176 9.63843 158.007 9.99294 158.64 10.7019C159.272 11.411 159.589 12.3432 159.589 13.4987Z" fill="#ECEEF3"/>
<path d="M171.681 6.00799H167.448V25.828H171.997V13.9321C172.234 12.7241 172.762 11.7393 173.579 10.9778C174.397 10.19 175.32 9.79605 176.348 9.79605H178.801C179.592 9.79605 180.225 10.098 180.699 10.702C181.201 11.2798 181.451 12.0413 181.451 12.9867V25.828H186V12.8685C186 10.7677 185.38 9.07389 184.141 7.78713C182.928 6.50037 181.306 5.8999 179.275 5.8999H176.094C175.512 5.8999 174.948 6.09884 174.496 6.46354L171.939 8.52388C171.836 8.60765 171.681 8.53388 171.681 8.40062V6.00799Z" fill="#ECEEF3"/>
<path d="M135.042 5.99652H130.769V25.8405H135.361V14.9045C135.361 13.4198 135.827 12.2135 136.759 11.2856C137.691 10.3577 138.916 9.89373 140.433 9.89373H142.829V5.91699H139.338C138.747 5.91699 138.175 6.12211 137.719 6.49712L135.302 8.48662C135.198 8.57194 135.042 8.49842 135.042 8.3644V5.99652Z" fill="#ECEEF3"/>
<path d="M86.0728 17.438V6.13281H90.5935V17.1962L95.3986 21.9164L100.2 17.1962V6.13281H104.721V17.438C104.721 18.5187 104.275 19.5519 103.488 20.2956L98.7765 24.7466C98.0416 25.441 97.0671 25.8281 96.054 25.8281H94.7396C93.7265 25.8281 92.752 25.441 92.017 24.7466L87.3059 20.2956C86.5186 19.5519 86.0728 18.5187 86.0728 17.438Z" fill="#ECEEF3"/>
</svg>
