<svg width="150" height="150" viewBox="0 0 150 150" fill="none" xmlns="http://www.w3.org/2000/svg">
<style>
    path {
        fill: #141C2C;
    }
    @media (prefers-color-scheme: dark) {
	    path {
	        fill: #ECEEF3;
	    }
    }
</style>
<path d="M69.2869 58.9121C68.2522 60.6993 69.5418 62.9361 71.6069 62.9361H96.8192C97.8248 62.9361 98.7458 63.4988 99.2046 64.3936L111.199 87.782C111.612 88.5882 111.59 89.5487 111.141 90.3354L99.2291 111.181C98.7518 112.016 97.8635 112.532 96.9014 112.532H68.2976L55.8827 133.976C54.848 135.763 56.1376 138 58.2028 138H111.467C113.372 138 115.133 136.99 116.095 135.346L136.553 100.382C137.034 99.5605 137.287 98.6259 137.287 97.6742V80.4627C137.287 79.5185 137.038 78.5909 136.564 77.774L114.751 40.141C113.792 38.4865 112.025 37.468 110.112 37.468H81.7015L69.2869 58.9121Z"/>
<path d="M80.7125 91.0879C81.7472 89.3007 80.4576 87.0639 78.3924 87.0639H53.1802C52.1746 87.0639 51.2536 86.5012 50.7947 85.6064L38.8007 62.218C38.3873 61.4118 38.409 60.4513 38.8585 59.6646L50.7703 38.819C51.2476 37.9837 52.1359 37.4682 53.098 37.4682H81.7017L94.1167 16.0242C95.1514 14.237 93.8618 12.0002 91.7966 12.0002H38.532C36.6275 12.0002 34.866 13.0104 33.9042 14.6541L13.4465 49.6181C12.9658 50.4395 12.7125 51.3741 12.7125 52.3258V69.5373C12.7125 70.4815 12.9619 71.4091 13.4354 72.226L35.2482 109.859C36.2072 111.513 37.9747 112.532 39.887 112.532H68.2979L80.7125 91.0879Z"/>
</svg>
