<svg width="139" height="20" fill="none" xmlns="http://www.w3.org/2000/svg">
  <path d="M.251 15.694c5.098.278 8.549.417 10.353.417.428 0 .763-.12 1.005-.361.26-.26.39-.602.39-1.028v-2.5H5.582c-1.953 0-3.376-.435-4.27-1.305C.438 10.027 0 8.61 0 6.667v-.834C0 3.89.437 2.481 1.312 1.611 2.205.722 3.628.278 5.582.278h9.794v3.889H6.698c-1.117 0-1.675.555-1.675 1.666v.556c0 1.111.558 1.667 1.675 1.667h5.023c1.823 0 3.162.425 4.018 1.277.856.852 1.284 2.185 1.284 4v1.39c0 1.814-.428 3.147-1.284 4-.856.851-2.195 1.277-4.018 1.277a86.39 86.39 0 01-3.014-.056l-2.568-.11c-1.897-.093-3.86-.223-5.888-.39v-3.75zM33.303 5.556c0-1.112-.558-1.667-1.674-1.667h-4.744c-1.116 0-1.674.555-1.674 1.667v8.888c0 1.112.558 1.667 1.674 1.667h4.744c1.116 0 1.674-.555 1.674-1.667V5.556zm5.024 8.888c0 1.945-.447 3.362-1.34 4.25-.874.87-2.288 1.306-4.242 1.306H25.77c-1.954 0-3.377-.435-4.27-1.306-.874-.888-1.312-2.305-1.312-4.25V5.556c0-1.945.438-3.352 1.312-4.223C22.392.444 23.815 0 25.769 0h6.976c1.954 0 3.368.444 4.242 1.333.893.87 1.34 2.278 1.34 4.223v8.888zm11.703-.555L54.776.278h5.442l-7.395 19.444H47.24L39.845.278h5.442l4.744 13.61zM81.752.278h11.72c1.954 0 3.368.444 4.242 1.333.893.87 1.34 2.278 1.34 4.222v2.5c0 1.537-.261 2.732-.782 3.584-.502.851-1.312 1.416-2.428 1.694l3.489 6.111H93.89l-3.21-5.833h-3.906v5.833h-5.023V.278zM94.03 5.833c0-1.11-.558-1.666-1.674-1.666h-5.581V10h5.581c1.116 0 1.674-.556 1.674-1.667v-2.5zM139 19.722h-5.302L127 8.056v11.666h-5.023V.278h5.302l6.698 11.666V.278H139v19.444zM78.312 4.505H62.824V.278h15.488v4.227zm40.078 0h-15.488V.278h15.488v4.227zm-40.078 7.609H62.824V7.886h15.488v4.228zm40.078 0h-15.488V7.886h15.488v4.228zm-40.078 7.608H62.824v-4.227h15.488v4.227zm40.078 0h-15.488v-4.227h15.488v4.227z" fill="#fff"/>
</svg>
