<svg width="235" height="34" fill="none" xmlns="http://www.w3.org/2000/svg">
  <path d="M.425 26.68c8.618.473 14.452.709 17.503.709.724 0 1.29-.205 1.699-.614.44-.44.66-1.023.66-1.747v-4.25H9.436c-3.303 0-5.709-.74-7.219-2.22C.74 17.048 0 14.638 0 11.333V9.917C0 6.61.74 4.219 2.217 2.739 3.727 1.228 6.133.472 9.436.472h16.56v6.611H11.323c-1.887 0-2.83.945-2.83 2.834v.944c0 1.889.943 2.833 2.83 2.833h8.492c3.083 0 5.348.724 6.794 2.173 1.447 1.448 2.17 3.714 2.17 6.8v2.36c0 3.086-.723 5.353-2.17 6.8C25.162 33.277 22.898 34 19.815 34c-1.604 0-3.302-.032-5.095-.094l-4.34-.19a298.76 298.76 0 01-9.955-.66V26.68zM56.304 9.444c0-1.888-.943-2.833-2.83-2.833h-8.021c-1.887 0-2.83.945-2.83 2.833v15.112c0 1.888.943 2.833 2.83 2.833h8.02c1.888 0 2.831-.945 2.831-2.833V9.444zm8.493 15.112c0 3.305-.755 5.713-2.265 7.225C61.054 33.26 58.663 34 55.361 34H43.566c-3.303 0-5.709-.74-7.219-2.22-1.478-1.51-2.217-3.919-2.217-7.224V9.444c0-3.305.739-5.698 2.217-7.177C37.857.756 40.263 0 43.566 0H55.36c3.302 0 5.693.756 7.171 2.267 1.51 1.48 2.265 3.872 2.265 7.177v15.112zm19.788-.945L92.605.472h9.2L89.303 33.528h-9.436L67.364.472h9.2l8.02 23.14zM138.213.472h19.816c3.302 0 5.693.756 7.171 2.267 1.51 1.48 2.265 3.872 2.265 7.178v4.25c0 2.613-.441 4.643-1.321 6.091-.85 1.448-2.218 2.409-4.105 2.88l5.897 10.39h-9.2l-5.425-9.917h-6.606v9.917h-8.492V.472zm20.759 9.445c0-1.89-.943-2.834-2.831-2.834h-9.436V17h9.436c1.888 0 2.831-.944 2.831-2.833v-4.25zM235 33.528h-8.964l-11.323-19.834v19.834h-8.493V.472h8.964l11.324 19.834V.472H235v33.056zM132.398 7.658h-26.184V.472h26.184v7.186zm67.757 0H173.97V.472h26.185v7.186zm-67.757 12.935h-26.184v-7.186h26.184v7.186zm67.757 0H173.97v-7.186h26.185v7.186zm-67.757 12.935h-26.184v-7.186h26.184v7.186zm67.757 0H173.97v-7.186h26.185v7.186z" fill="#fff"/>
</svg>
